<svg version="1.1" viewBox="400 270 600 500" xmlns="http://www.w3.org/2000/svg">
  <g fill="currentColor">
    <path d="M0 0 C3.935 2.125 7.44 4.58 10.976 7.312 C14.431 9.958 17.992 12.406 21.589 14.851 C27.126 18.634 32.622 22.468 38.089 26.351 C44.661 31.014 51.298 35.574 57.964 40.101 C65.333 45.105 72.651 50.168 79.914 55.324 C84.568 58.626 89.254 61.878 93.964 65.101 C99.436 68.846 104.869 72.64 110.277 76.476 C116.359 80.79 122.489 85.029 128.652 89.226 C134.698 93.344 140.69 97.52 146.624 101.797 C151.456 105.267 156.36 108.627 161.277 111.976 C169.528 117.598 177.703 123.321 185.845 129.1 C188.773 131.174 191.708 133.238 194.642 135.303 C196.789 136.815 198.932 138.333 201.074 139.851 C203.449 141.535 205.833 143.199 208.23 144.851 C214.886 149.507 220.775 154.222 224.464 161.601 C225.319 166.727 224.989 170.797 222.402 175.351 C215.158 182.038 204.696 184 195.464 186.726 C193.978 187.172 192.493 187.619 191.007 188.066 C189.566 188.497 188.125 188.928 186.683 189.359 C186.028 189.555 185.372 189.751 184.697 189.952 C181.389 190.928 178.073 191.839 174.726 192.669 C173.485 192.976 172.243 193.284 170.964 193.601 C170.967 194.554 170.97 195.506 170.973 196.488 C171.039 219.7 171.089 242.912 171.12 266.125 C171.135 277.35 171.156 288.575 171.191 299.801 C171.221 309.588 171.24 319.375 171.247 329.163 C171.251 334.342 171.26 339.521 171.282 344.701 C171.302 349.583 171.308 354.465 171.304 359.347 C171.304 361.132 171.31 362.917 171.322 364.701 C171.412 379.285 170.739 393.53 159.996 404.636 C150.511 412.729 139.515 414.199 127.44 414.109 C126.13 414.115 124.82 414.121 123.471 414.128 C119.868 414.144 116.267 414.136 112.664 414.124 C108.767 414.115 104.869 414.129 100.971 414.14 C93.349 414.158 85.728 414.154 78.106 414.142 C71.909 414.133 65.713 414.132 59.517 414.136 C58.633 414.137 57.75 414.138 56.839 414.138 C55.044 414.139 53.249 414.141 51.454 414.142 C34.642 414.153 17.83 414.14 1.018 414.119 C-13.394 414.101 -27.807 414.104 -42.221 414.123 C-58.978 414.144 -75.734 414.152 -92.491 414.14 C-94.279 414.139 -96.067 414.138 -97.855 414.136 C-98.734 414.136 -99.614 414.135 -100.52 414.134 C-106.707 414.131 -112.894 414.137 -119.081 414.146 C-126.624 414.157 -134.166 414.154 -141.708 414.133 C-145.554 414.123 -149.399 414.118 -153.244 414.132 C-157.418 414.146 -161.591 414.129 -165.764 414.109 C-167.576 414.122 -167.576 414.122 -169.424 414.136 C-180.096 414.037 -189.248 411.153 -197.035 403.601 C-203.12 396.163 -206.51 388.341 -206.413 378.687 C-206.418 377.933 -206.422 377.178 -206.427 376.4 C-206.438 373.894 -206.429 371.388 -206.419 368.882 C-206.424 367.076 -206.429 365.27 -206.436 363.464 C-206.447 359.587 -206.45 355.709 -206.445 351.832 C-206.439 345.701 -206.454 339.571 -206.474 333.44 C-206.515 319.324 -206.526 305.208 -206.537 291.093 C-206.548 278.145 -206.565 265.196 -206.605 252.248 C-206.624 246.153 -206.628 240.058 -206.62 233.963 C-206.619 230.174 -206.63 226.386 -206.644 222.598 C-206.648 220.841 -206.647 219.084 -206.64 217.326 C-206.632 214.929 -206.642 212.532 -206.656 210.134 C-206.649 209.438 -206.642 208.742 -206.635 208.025 C-206.686 203.723 -207.404 201.023 -210.035 197.601 C-212.582 195.97 -212.582 195.97 -215.722 194.789 C-216.312 194.546 -216.901 194.304 -217.508 194.054 C-224.65 191.207 -232 188.887 -239.33 186.58 C-257.753 180.676 -257.753 180.676 -262.035 173.601 C-263.729 168.519 -263.617 164.317 -261.347 159.476 C-254.057 146.354 -236.559 137.899 -224.285 129.789 C-218.809 126.155 -213.442 122.384 -208.082 118.584 C-201.962 114.248 -195.817 109.948 -189.66 105.664 C-188.682 104.983 -187.704 104.303 -186.697 103.602 C-180.561 99.339 -174.4 95.116 -168.222 90.914 C-161.231 86.157 -154.364 81.25 -147.531 76.271 C-142.255 72.442 -136.889 68.783 -131.443 65.202 C-127.174 62.387 -122.994 59.468 -118.847 56.476 C-114.75 53.521 -110.629 50.632 -106.41 47.851 C-101.154 44.382 -95.997 40.788 -90.847 37.164 C-81.94 30.897 -72.948 24.762 -63.924 18.665 C-58.256 14.826 -52.669 10.913 -47.16 6.851 C-32.845 -3.509 -16.597 -7.344 0 0 Z M7.964 73.6 C7.181 74.364 6.397 75.127 5.589 75.914 C4.723 76.8 3.857 77.687 2.964 78.6 C-2.513 84.185 -8.082 89.527 -14.035 94.6 C-15.03 95.462 -16.025 96.323 -17.05 97.21 C-26.251 105.163 -35.609 112.917 -45.035 120.6 C-45.98 121.375 -45.98 121.375 -46.944 122.164 C-61.086 133.715 -75.697 144.683 -91.035 154.6 C-92.327 155.458 -93.619 156.316 -94.91 157.175 C-104.198 163.32 -113.663 168.974 -123.481 174.229 C-125.263 175.187 -127.041 176.153 -128.815 177.125 C-142.276 184.497 -155.819 190.797 -170.173 196.175 C-171.302 196.598 -172.43 197.021 -173.593 197.457 C-174.597 197.824 -175.6 198.192 -176.634 198.571 C-179.16 199.479 -179.16 199.479 -181.035 201.6 C-181.202 204.185 -181.202 204.185 -181.035 206.6 C-180.01 206.916 -178.985 207.23 -177.929 207.554 C-176.568 207.986 -175.208 208.418 -173.847 208.851 C-172.837 209.159 -172.837 209.159 -171.806 209.472 C-171.145 209.685 -170.485 209.898 -169.804 210.117 C-169.202 210.305 -168.6 210.494 -167.979 210.688 C-165.18 212.002 -163.258 213.432 -161.035 215.6 C-160.409 218.635 -160.409 218.635 -160.409 222.261 C-160.402 222.929 -160.395 223.597 -160.388 224.286 C-160.371 226.524 -160.389 228.761 -160.407 230.999 C-160.402 232.604 -160.394 234.209 -160.385 235.814 C-160.369 239.27 -160.37 242.726 -160.382 246.182 C-160.401 251.65 -160.386 257.117 -160.366 262.584 C-160.339 271.235 -160.336 279.885 -160.342 288.536 C-160.353 304.019 -160.329 319.501 -160.289 334.984 C-160.275 340.416 -160.274 345.848 -160.283 351.281 C-160.286 354.665 -160.282 358.049 -160.276 361.433 C-160.275 362.999 -160.277 364.565 -160.283 366.131 C-160.291 368.274 -160.287 370.417 -160.279 372.56 C-160.28 373.758 -160.281 374.956 -160.282 376.19 C-160.008 379.963 -159.19 383.011 -158.035 386.6 L -157.035 386.6 L -156.035 388.6 C-152.617 391.019 -150.566 392.481 -147.097 392.753 C-120.618 389.995 -93.514 366.732 -74.718 349.097 C-72.432 346.97 -70.105 344.93 -67.722 342.914 C-63.753 339.459 -60.398 335.638 -57.035 331.6 L -54.984 329.24 C-42.664 314.782 -29.989 297.214 -29.722 277.6 L -29.634 275.44 C-29.596 272.294 -29.725 270.084 -31.446 267.4 C-35.408 264.645 -39.161 265.017 -43.882 265.027 L -46.813 264.984 C-49.908 264.942 -53.002 264.927 -56.097 264.914 C-59.167 264.884 -62.237 264.849 -65.306 264.811 C-67.214 264.789 -69.122 264.773 -71.03 264.764 C-89.574 264.617 -89.574 264.617 -96.035 260.6 L -96.035 254.6 C-90.792 252.151 -85.813 250.734 -80.148 249.621 C-78.401 249.262 -76.654 248.903 -74.906 248.544 L -72.156 247.986 C-54.165 244.32 -36.57 240.072 -19.035 234.6 L -16.17 233.736 C18.649 223.198 48.913 205.221 66.876 172.676 C69.208 168.229 71.302 163.659 73.314 159.059 C74.884 155.538 75.683 153.789 78.964 151.6 C81.296 151.522 83.633 151.513 85.964 151.6 C91.546 180.068 69.724 218.372 54.839 241.226 C53.569 243.033 52.277 244.825 50.964 246.6 L 48.64 249.781 C37.702 264.496 24.713 278.479 10.55 290.136 C8.751 291.799 7.38 293.607 5.964 295.6 C11.561 294.227 17.148 292.829 22.71 291.324 L 25.213 290.651 C26.847 290.21 28.48 289.765 30.112 289.315 C43.042 285.839 56.162 284.855 68.554 290.855 C74.298 294.362 78.614 298.891 80.504 305.484 C85.857 330.107 72.075 353.639 59.333 373.506 C55.993 378.621 52.5 383.62 48.964 388.6 L 46.964 391.6 C56.127 391.694 65.29 391.765 74.454 391.808 L 87.222 391.903 C91.339 391.947 95.456 391.97 99.574 391.981 C101.135 391.988 102.695 392.002 104.256 392.024 C116.238 392.185 128.656 391.431 138.312 383.449 C143.653 377.476 146.038 370.059 146.262 362.207 L 146.321 360.249 C146.384 358.096 146.44 355.942 146.494 353.789 L 146.62 349.192 C147.32 322.697 147.526 296.193 147.668 269.691 C147.719 260.384 147.794 251.078 147.925 241.772 C148.04 233.551 148.112 225.332 148.134 217.11 C148.147 212.787 148.18 208.467 148.264 204.145 C148.341 200.103 148.362 196.064 148.34 192.021 C148.342 190.546 148.364 189.071 148.408 187.596 C148.662 178.935 148.662 178.935 144.356 171.772 C141.417 169.392 138.242 167.484 134.964 165.6 C133.477 164.608 131.995 163.606 130.523 162.589 L 126.402 159.914 C117.464 154.041 108.892 147.731 100.317 141.345 C90.801 134.291 81.15 127.419 71.464 120.6 C65.43 116.349 59.404 112.086 53.402 107.789 L 51.203 106.228 C39.184 97.591 32.795 90.362 28.187 76.214 C27.19 73.3 26.256 70.934 24.214 68.6 C16.921 65.36 12.945 68.548 7.964 73.6 Z M-24.91 350.539 C-44.116 366.607 -65.027 377.934 -87.701 388.447 L -93.035 391.6 L 30.964 391.6 C34.381 384.086 37.322 377.06 39.652 369.226 L 40.564 366.176 C46.164 347.501 46.164 347.501 43.757 328.851 C41.605 326.15 40.288 325.473 36.964 324.6 C12.134 321.842 -7.011 335.464 -24.91 350.539 Z" transform="translate(790.035, 293.398)"/>
    <path d="M0 0 C0.63 0.413 1.26 0.827 1.91 1.253 C2.933 1.89 2.933 1.89 3.976 2.539 C11.57 7.711 17.231 14.59 19.476 23.585 C21.135 33.793 20.289 43.828 14.222 52.441 C7.712 60.378 -0.505 67.195 -11.089 68.253 C-21.847 68.91 -30.372 66.777 -39.089 60.253 C-46.001 53.869 -50.69 46.183 -51.328 36.714 C-51.638 25.461 -50.354 17.779 -42.839 8.941 C-32.186 -2.202 -14.414 -7.971 0 0 Z" transform="translate(801.089, 430.746)"/>
    <path d="M0 0 C15.447 -1.774 26.669 11.029 38 20 C46.977 27.079 55.935 34.048 65.398 40.468 C76.339 48.038 86.773 56.414 97.187 64.687 C104.579 70.548 112.225 76.05 119.913 81.514 C121.772 82.837 123.623 84.171 125.472 85.507 C133.001 90.862 140.81 95.42 148.903 99.844 C151.078 101.043 153.24 102.266 155.398 103.496 C156.116 103.904 156.834 104.313 157.574 104.734 C158.945 105.515 160.315 106.297 161.684 107.082 C165.048 108.987 168.366 110.673 172 112 C169.417 114.696 167.288 115.244 163.691 115.433 C161.981 115.456 160.272 115.456 158.562 115.437 L 155.856 115.421 C146.732 115.213 139.194 112.907 130.875 109.187 C128.004 107.634 128.004 107.634 125 109 L 125.006 112.624 C125.063 144.457 125.066 176.291 125.014 208.124 C125.004 215.053 124.998 221.983 124.998 228.912 C124.998 238.672 124.979 248.433 124.918 258.193 C124.89 262.569 124.872 266.945 124.88 271.322 C124.886 275.387 124.865 279.451 124.821 283.516 C124.81 284.975 124.809 286.434 124.819 287.893 C124.878 297.502 123.461 304.927 118 313 L 116 314 L 116.812 312 C117.204 311.01 117.596 310.02 118 309 L 119.533 305.757 C121.902 299.373 121.555 292.596 121.65 285.873 L 121.748 281.344 C121.832 277.36 121.899 273.377 121.961 269.393 C122.011 266.303 122.07 263.213 122.13 260.124 C122.499 240.798 122.682 221.47 122.807 202.141 C122.869 192.842 122.958 183.544 123.111 174.246 C123.246 166.031 123.331 157.818 123.357 149.603 C123.373 145.283 123.412 140.967 123.51 136.649 C123.602 132.609 123.627 128.574 123.601 124.533 C123.604 123.06 123.629 121.586 123.682 120.114 C124.038 112.234 124.038 112.234 120.613 105.423 C116.756 102.027 112.463 99.512 108 97 L 104.019 94.328 L 100.812 92.25 C92.438 86.746 84.441 80.749 76.400 74.775 C66.862 67.72 57.201 60.829 47.5 54 C41.465 49.748 35.439 45.485 29.437 41.187 C28.711 40.672 27.986 40.157 27.238 39.626 C16.02 31.565 8.396 24.321 4 11 L 2.312 6.5 C1.505 4.346 0.727 2.181 0 0 Z" transform="translate(814, 361)"/>
    <path d="M0 0 C0.99 0.495 0.99 0.495 2 1 C-0.309 3.465 -2.781 5.339 -5.562 7.25 L -8.25 9.105 L -11 11 C-12.688 12.186 -14.375 13.373 -16.062 14.562 C-19.911 17.258 -23.805 19.877 -27.722 22.472 C-32.685 25.801 -37.552 29.271 -42.433 32.718 C-46.831 35.815 -51.261 38.847 -55.75 41.812 C-60.235 44.785 -64.634 47.855 -69 51 C-73.22 54.04 -77.468 57.01 -81.812 59.875 C-89.032 64.64 -96.067 69.662 -103.121 74.667 C-115.284 83.292 -127.545 91.8 -140 100 L -142 99 C-134.323 93.452 -126.584 88.01 -118.75 82.687 C-112.339 78.33 -106.013 73.877 -99.75 69.312 C-93.728 64.924 -87.633 60.694 -81.407 56.601 C-77.138 53.786 -72.959 50.866 -68.812 47.875 L -56.375 39.25 C-50.262 35.215 -44.281 31.003 -38.292 26.788 C-33.33 23.305 -28.345 19.859 -23.328 16.457 L -21.622 15.3 L -13.313 9.685 L -10.253 7.617 L -7.545 5.792 C-4.941 3.959 -2.465 2.013 0 0 Z" transform="translate(740, 302)"/>
    <path d="M0 0 C0.99 0.495 0.99 0.495 2 1 C-4.646 5.523 -10.913 8.121 -19 9 L -21.282 8.532 C-24.352 7.93 -27.222 7.838 -30.35 7.794 L -34.171 7.734 L -38.269 7.683 L -42.485 7.62 C-46.172 7.565 -49.86 7.516 -53.547 7.467 C-57.315 7.417 -61.082 7.361 -64.849 7.306 C-72.233 7.199 -79.616 7.097 -87 7 L -86 5 L -83.354 5.026 C-75.072 5.107 -66.792 5.168 -58.51 5.207 L -45.742 5.301 L -33.39 5.379 L -28.708 5.422 C-18.84 5.555 -10.252 4.786 -1 1 L 0 0 Z" transform="translate(923, 679)"/>
    <path d="M0 0 L -1.074 4.472 C-10.31 13.574 -20.638 20.817 -32 27 L -34 25 L -31.289 23.531 C-19.532 17.057 -9.879 9.08 0 0 Z" transform="translate(841, 488)"/>
    <path d="M0 0 L 2 1 C-2.07 4.535 -6.291 7.697 -10.734 10.75 C-13.426 12.605 -16.098 14.484 -18.765 16.375 C-20.489 17.583 -22.213 18.792 -23.937 20 L -26.487 21.82 L -28.902 23.5 L -31.073 25.031 L -33 26 L -36 25 L -33.972 23.671 C-22.45 16.062 -11.23 8.03 0 0 Z" transform="translate(596, 402)"/>
    <path d="M0 0 L 2 1 L -0.378 2.757 C-12.453 11.276 -12.453 11.276 -21 23 L -21.347 18.125 C-16.27 9.73 -8.1 5.146 0 0 Z" transform="translate(550, 434)"/>
    <path d="M0 0 L 2 0 C5.129 11.225 4.279 22.209 0 33 L -0.062 23.062 C1.178 15.639 2.422 7.267 0 0 Z" transform="translate(833, 622)"/>
    <path d="M0 0 L 2 1 C-5.058 5.803 -13.075 9.901 -21.875 8.562 L -24 8 C-19.496 5.389 -14.562 4.834 -9.507 3.878 L -2.679 1.339 L 0 0 Z" transform="translate(923, 679)"/>
    <path d="M0 0 L 12 0 L 12 2 C9.899 2.698 7.794 3.383 5.687 4.062 L 2.136 5.222 L -4 5 L 0 3 L 0 0 Z" transform="translate(987, 474)"/>
    <path d="M0 0 L 2 2 C-3.468 7.582 -9.036 12.946 -15 18 L -17 17 C-13.539 13.444 -10.062 9.991 -6.25 6.812 C-3.781 4.743 -1.777 2.718 0 0 Z" transform="translate(728, 629)"/>
    <path d="M0 0 L 1 2 L -3.437 9.625 L -4.751 11.765 L -8 17 L -9 13 L -7 13 L -6.449 11.066 L -5.687 8.562 L -4.949 6.066 L -4 4 L -1 3 L 0 0 Z" transform="translate(857, 652)"/>
    <path d="M0 0 L 0 3 L -5 3 L -5 1 L 0 0 Z" transform="translate(820, 681)"/>
  </g>
</svg>
